HIERARCHY
ROOT Hips
{
  OFFSET -68.0389 97.395 -23.6479
  CHANNELS 6 Xposition Yposition Zposition Zrotation Xrotation Yrotation
  JOINT RightUpLeg
  {
    OFFSET -8.9458 -8.66707 0.101652
    CHANNELS 3 Zrotation Xrotation Yrotation
    JOINT RightLeg
    {
      OFFSET 0 -44.4227 1.3727
      CHANNELS 3 Zrotation Xrotation Yrotation
      JOINT RightFoot
      {
        OFFSET 0.253549 -42.0924 -1.46059
        CHANNELS 3 Zrotation Xrotation Yrotation
        JOINT RightToes
        {
          OFFSET 0.04 -4.41509 8.4991
          CHANNELS 3 Zrotation Xrotation Yrotation
          End Site
          {
            OFFSET -0.08 -0.137448 9.77979
          }
        }
      }
    }
  }
  JOINT Spine
  {
    OFFSET 0 11.8905 0
    CHANNELS 3 Zrotation Xrotation Yrotation
    JOINT Spine1
    {
      OFFSET 0 25.6574 0.127663
      CHANNELS 3 Zrotation Xrotation Yrotation
      JOINT HEad
      {
        OFFSET 0 8.73416 0.011341
        CHANNELS 3 Zrotation Xrotation Yrotation
        End Site
        {
          OFFSET -0.29 12.7742 2.51395
        }
      }
      JOINT LeftShoulder1
      {
        OFFSET 8.99 -0.362252 -0.22
        CHANNELS 3 Zrotation Xrotation Yrotation
        JOINT LeftArm
        {
          OFFSET 10.2827 -0.00338 0.322123
          CHANNELS 3 Zrotation Xrotation Yrotation
          JOINT LeftForeArm
          {
            OFFSET 32.7669 0.099144 -1.42434
            CHANNELS 3 Zrotation Xrotation Yrotation
            JOINT LeftHand
            {
              OFFSET 27.5643 0.085362 1.02216
              CHANNELS 3 Zrotation Xrotation Yrotation
              End Site
              {
                OFFSET 16.7443 -0.6 1.50291
              }
            }
          }
        }
      }
      JOINT RightShoulder
      {
        OFFSET -8.99 -0.362252 -0.22
        CHANNELS 3 Zrotation Xrotation Yrotation
        JOINT RightArm
        {
          OFFSET -10.2827 -0.00338 0.322123
          CHANNELS 3 Zrotation Xrotation Yrotation
          JOINT RightForeArm
          {
            OFFSET -32.8971 0.099144 -1.42434
            CHANNELS 3 Zrotation Xrotation Yrotation
            JOINT RightHand
            {
              OFFSET -32.6256 0.814023 -6.80285
              CHANNELS 3 Zrotation Xrotation Yrotation
              End Site
              {
                OFFSET -16.6312 -0.6 1.50291
              }
            }
          }
        }
      }
    }
  }
  JOINT LeftUpLeg
  {
    OFFSET 8.9458 -8.66707 0.101652
    CHANNELS 3 Zrotation Xrotation Yrotation
    JOINT LeftLeg
    {
      OFFSET 0 -44.4227 1.3727
      CHANNELS 3 Zrotation Xrotation Yrotation
      JOINT LeftFoot
      {
        OFFSET -0.253549 -42.0924 -1.46059
        CHANNELS 3 Zrotation Xrotation Yrotation
        JOINT LeftToes
        {
          OFFSET -0.04 -4.41509 8.4991
          CHANNELS 3 Zrotation Xrotation Yrotation
          End Site
          {
            OFFSET 0.08 -0.047448 9.77979
          }
        }
      }
    }
  }
}
MOTION
Frames:	7
Frame Time:	0.0166667
-70.3844 91.1286 -26.17 2.15025 -3.75755 95.6642 -7.44707 -40.6252 10.8436 -6.74898 39.4833 17.8854 18.6841 9.07114 -2.39284 0.0462048 0.000533403 0.662642 1.19727 6.97354 -10.2288 0.161496 13.5122 -19.6665 3.42591 3.63639 23.6222 -9.93923e-016 4.07509e-015 -0 -33.1205 -14.4113 -78.6483 -5.0106 0.730767 -38.6583 7.21815 19.4659 -2.26649 19.6758 -2.13591 -12.1766 94.878 -16.0599 58.6018 -3.46218 57.0949 113.935 -15.5616 28.362 -9.40978 22.8549 -3.19726 -5.37851 -36.5985 38.0149 60.4309 6.73711 6.23428 -0.292568 -1.32165e-009 1.56054e-007 -4.85415e-009 
-69.9604 91.4508 -26.8101 1.84164 -3.83895 96.223 -7.04292 -40.0099 12.1306 -6.0893 39.1563 16.1143 16.6974 9.8501 -2.28165 0.0462048 0.000533403 0.662642 1.68387 7.16265 -11.9018 1.13077 13.7683 -23.0904 1.49993 2.52266 27.4418 1.14301e-015 3.67752e-015 -0 -25.3628 -15.2965 -78.6651 -0.0214777 -2.73629 -25.9078 7.21815 19.4659 -2.26649 19.5221 -2.21885 -12.6222 92.5054 -8.19466 59.723 -0.622187 55.0884 106.471 -13.0899 30.5009 -11.1496 22.5508 -2.81529 -5.59339 -35.2069 38.0032 55.6303 5.99 6.91518 -0.244141 -1.32165e-009 1.56054e-007 -4.85415e-009 
-69.3443 91.7594 -27.4125 1.51086 -3.63015 97.0291 -7.5 -39.3244 13.2455 -5.03342 38.9785 13.85 14.3101 10.4711 -2.07872 0.0462048 0.000533403 0.662642 2.09313 7.30654 -13.1018 1.87289 13.9326 -25.5363 -0.134109 0.972369 29.59 -2.38542e-015 -1.88845e-015 3.18055e-015 -22.4108 -15.6963 -77.7756 2.40936 -3.36495 -19.8158 7.21815 19.4659 -2.26649 19.3364 -2.27268 -12.9546 89.8436 -2.77628 61.5308 2.66256 53.578 98.7964 -10.4719 32.701 -12.8808 22.137 -2.49611 -6.01686 -33.863 38.1085 50.2629 5.23145 8.05807 -0.190967 -1.32166e-009 1.56054e-007 -4.85414e-009 
-68.5778 92.0257 -27.9944 1.22721 -3.1432 97.9057 -8.72527 -38.6128 13.7489 -3.86021 38.9554 11.7779 12.0664 10.8094 -1.84258 0.0462048 0.000533403 0.662642 2.38023 7.41187 -13.6862 2.34188 14.0525 -26.7098 -1.39319 -0.724771 29.9637 -1.39149e-015 3.57812e-015 -0 -23.3152 -14.9967 -76.6074 3.2846 -4.97149 -21.3919 7.21815 19.4659 -2.26649 18.9905 -2.22867 -12.9141 87.0826 -0.377168 63.8665 6.43157 52.4819 91.0857 -8.17358 34.9417 -14.1284 21.5651 -2.33058 -6.699 -32.7024 38.4575 45.115 4.5479 9.67059 -0.138257 -1.32165e-009 1.56054e-007 -4.85415e-009 
-67.7248 92.234 -28.5477 1.05718 -2.43211 98.8506 -10.561 -37.8587 13.2943 -2.87492 39.0888 10.4164 10.3679 10.9167 -1.64362 0.0462048 0.000533403 0.662642 2.54145 7.50999 -13.6136 2.54668 14.2075 -26.5373 -2.2661 -2.32354 28.648 2.38542e-015 1.39149e-015 6.36111e-015 -28.2486 -13.43 -75.384 2.04896 -6.62193 -30.5826 7.21815 19.4659 -2.26649 18.4546 -2.05872 -12.362 84.5433 -1.39541 66.3415 10.737 51.7437 83.5328 -6.54628 37.2451 -14.6084 20.8893 -2.43309 -7.63311 -31.7249 39.1286 40.7818 3.97194 11.7908 -0.0907568 -1.32164e-009 1.56054e-007 -4.85416e-009 
-66.846 92.3782 -29.0422 1.03443 -1.57111 100.006 -12.8281 -37.0086 11.84 -2.21918 39.4183 9.844 9.35723 10.8917 -1.51757 0.0462048 0.000533403 0.662642 2.60147 7.62967 -12.9431 2.54292 14.4561 -25.1558 -2.78174 -3.67877 25.8618 3.97569e-016 5.56597e-015 3.18055e-015 -38.119 -11.9765 -73.7559 -2.5972 -3.50574 -45.8237 7.21815 19.4659 -2.26649 17.8061 -1.78879 -11.3402 82.6042 -5.98503 68.4878 15.644 51.4167 76.3434 -5.53534 39.6148 -14.453 20.2534 -2.92168 -8.74752 -30.8123 40.1017 37.5443 3.50345 14.4113 -0.0522506 -1.32165e-009 1.56054e-007 -4.85415e-009 
-65.9842 92.4654 -29.4387 1.14037 -0.631434 101.58 -15.3714 -35.9857 9.69114 -1.76519 39.9753 9.64816 8.92997 10.8078 -1.45978 0.0462048 0.000533403 0.662642 2.59065 7.77866 -11.8032 2.39778 14.8083 -22.8466 -2.96722 -4.73722 21.8945 3.97569e-016 -1.21259e-014 -3.18055e-015 -52.7295 -11.9266 -71.0087 -9.66956 8.13456 -61.9493 7.21815 19.4659 -2.26649 17.2262 -1.50076 -10.1361 81.5326 -13.9773 70.0784 21.3418 51.6513 69.5564 -4.57995 42.0069 -14.2414 19.8241 -3.90668 -9.93875 -29.7655 41.2374 35.3346 3.19063 17.4228 -0.0385375 -1.32165e-009 1.56054e-007 -4.85415e-009 
